<svg xmlns="http://www.w3.org/2000/svg" xmlns:xlink="http://www.w3.org/1999/xlink" width="2878" height="1026" fill="none" viewBox="0 0 2878 1026"><filter id="a" width="2959.43" height="2515.55" x="415.144" y="-931.011" color-interpolation-filters="sRGB" filterUnits="userSpaceOnUse"><feFlood flood-opacity="0" result="BackgroundImageFix"/><feBlend in="SourceGraphic" in2="BackgroundImageFix" mode="normal" result="shape"/><feGaussianBlur result="effect1_foregroundBlur_454_16187" stdDeviation="120"/></filter><filter id="b" width="714.866" height="1361.95" x="597.452" y="-811.857" color-interpolation-filters="sRGB" filterUnits="userSpaceOnUse"><feFlood flood-opacity="0" result="BackgroundImageFix"/><feBlend in="SourceGraphic" in2="BackgroundImageFix" mode="normal" result="shape"/><feGaussianBlur result="effect1_foregroundBlur_454_16187" stdDeviation="96"/></filter><filter id="c" width="717.826" height="1189.79" x="1418.04" y="-532.845" color-interpolation-filters="sRGB" filterUnits="userSpaceOnUse"><feFlood flood-opacity="0" result="BackgroundImageFix"/><feBlend in="SourceGraphic" in2="BackgroundImageFix" mode="normal" result="shape"/><feGaussianBlur result="effect1_foregroundBlur_454_16187" stdDeviation="96"/></filter><filter id="d" width="685.586" height="1058.69" x="821.508" y="-499.964" color-interpolation-filters="sRGB" filterUnits="userSpaceOnUse"><feFlood flood-opacity="0" result="BackgroundImageFix"/><feBlend in="SourceGraphic" in2="BackgroundImageFix" mode="normal" result="shape"/><feGaussianBlur result="effect1_foregroundBlur_454_16187" stdDeviation="96"/></filter><linearGradient id="e" x1="214.536" x2="214.536" y1="0" y2="429.072" gradientUnits="userSpaceOnUse"><stop offset=".443" stop-color="#fff" stop-opacity=".17"/><stop offset="1" stop-color="#fff"/></linearGradient><linearGradient id="f" x1="1893.66" x2="1901.84" y1="950.198" y2="428.952" gradientUnits="userSpaceOnUse"><stop offset="0" stop-color="#f63b7e"/><stop offset=".145" stop-color="#f66c3b" stop-opacity=".72"/><stop offset="1" stop-color="#fff" stop-opacity="0"/></linearGradient><linearGradient id="g" x1="1797.35" x2="1815.68" y1="163.019" y2="646.336" gradientUnits="userSpaceOnUse"><stop offset="0" stop-color="#1246ff"/><stop offset=".347" stop-color="#f452f7" stop-opacity=".48"/><stop offset="1" stop-color="#fff" stop-opacity="0"/></linearGradient><linearGradient id="h"><stop offset="0" stop-color="#0099c9"/><stop offset=".255" stop-color="#95cb24" stop-opacity=".906"/><stop offset="1" stop-color="#fff" stop-opacity="0"/></linearGradient><linearGradient id="i" x1="1703.28" x2="1558" y1="46.26" y2="441.487" gradientUnits="userSpaceOnUse" xlink:href="#h"/><linearGradient id="j" x1="1885.88" x2="1752.37" y1="167.649" y2="487.47" gradientUnits="userSpaceOnUse"><stop offset="0" stop-color="#2a8300"/><stop offset=".4" stop-color="#d1ab25" stop-opacity=".855"/><stop offset="1" stop-color="#fff" stop-opacity="0"/></linearGradient><linearGradient id="k" x1="1156.4" x2="1009.18" y1="232.926" y2="-98.605" gradientUnits="userSpaceOnUse"><stop offset="0" stop-color="#97bedb"/><stop offset=".145" stop-color="#2b9fed"/><stop offset="1" stop-color="#fff" stop-opacity="0"/></linearGradient><linearGradient id="l" x1="1753.8" x2="1745.04" y1="423.507" y2="107.816" gradientUnits="userSpaceOnUse" xlink:href="#h"/><linearGradient id="m" x1="1125.13" x2="1129.14" y1="325.665" y2="65.769" gradientUnits="userSpaceOnUse"><stop offset=".602" stop-color="#f66c3b"/><stop offset="1" stop-color="#fff" stop-opacity="0"/></linearGradient><clipPath id="n"><path d="m0 0h2878v1026h-2878z"/></clipPath><g clip-path="url(#n)"><g filter="url(#a)"><g stroke-width="3.75"><path stroke="#fff" stroke-dasharray="7.5 7.5" d="m-3.33773-.466474h1428.19v1354.99h-1428.19z" opacity=".6" transform="matrix(-.829361 -.558713 -.95076 .309927 3128.02 106.845)"/><path stroke="#fff" stroke-dasharray="7.5 7.5" d="m-3.33773-.466474h1296.74v1230.26h-1296.74z" opacity=".6" transform="matrix(-.829361 -.558713 -.95076 .309927 3014.22 89.4524)"/><path stroke="#fff" stroke-dasharray="7.5 7.5" d="m-3.33773-.466474h1175.15v1114.88h-1175.15z" opacity=".6" transform="matrix(-.829361 -.558713 -.95076 .309927 3047.21 120.992)"/><path stroke="#fff" stroke-dasharray="7.5 7.5" d="m-3.33773-.466474h1045.86v992.2h-1045.86z" opacity=".6" transform="matrix(-.829361 -.558713 -.95076 .309927 2786.6 54.6678)"/><rect width="425.322" height="425.322" x="-3.338" y="-.466" stroke="url(#e)" stroke-linejoin="round" opacity=".1" rx="9.375" transform="matrix(-.829361 -.558713 -.95076 .309927 2234.69 105.09)"/><rect width="425.322" height="425.322" x="-3.338" y="-.466" stroke="url(#e)" stroke-linejoin="round" opacity=".1" rx="9.375" transform="matrix(-.829361 -.558713 -.95076 .309927 2226.39 164.513)"/></g><path fill="url(#f)" fill-opacity=".5" d="m1954.75 973.611 185.46 58.089-180.84-1293.807-185.46-58.094z"/><path fill="url(#g)" fill-opacity=".5" d="m1858.4 139.858 185.46-58.093-168.38 1204.675-185.46 58.1z"/><path fill="url(#i)" fill-opacity=".5" d="m1650.86 7.66992-162.42-106.71332-147.59 1056.1254 162.43 106.718z"/><path fill="url(#j)" fill-opacity=".5" d="m1833.4 129.564-162.43-106.7129-122.67 877.8579 162.42 106.711z"/></g><g filter="url(#b)"><path fill="url(#k)" fill-opacity=".5" d="m1120.32 266.041-113.01 92.055-217.858-885.898 113.012-92.055z"/></g><g filter="url(#c)"><path fill="url(#l)" fill-opacity=".5" d="m1801.05 435.802 142.82 29.14-191.01-776.647-142.82-29.14z"/></g><g filter="url(#d)"><path fill="url(#m)" fill-opacity=".5" d="m1172.28 337.589 142.81 29.141-158.76-645.554-142.82-29.14z"/></g></g></svg>